<svg width="24" height="24" viewBox="0 0 24 24" fill="none" xmlns="http://www.w3.org/2000/svg">
<path d="M8.70644 3.56878L9.39313 10.0671L6.63668 8.02717C5.52134 9.62005 5.13189 11.3705 5.46833 13.2786C5.76857 15.1613 6.69975 16.663 8.26185 17.7838C9.8493 18.8684 11.5663 19.2479 13.4128 18.9223C15.2593 18.5967 16.743 17.6528 17.8637 16.0907C18.9845 14.5286 19.3767 12.7936 19.0402 10.8855C18.7038 8.97743 17.7391 7.46572 16.1462 6.35038C14.5896 5.26038 12.8726 4.88089 10.9953 5.21191L10.6453 3.22691C13.0765 2.79821 15.2904 3.29634 17.2869 4.7213C19.3142 6.14083 20.5449 8.0816 20.9791 10.5436C21.4132 13.0056 20.9205 15.2503 19.5009 17.2776C18.1122 19.2995 16.2176 20.522 13.8171 20.9453C11.3859 21.374 9.15659 20.8786 7.12929 19.4591C5.102 18.0395 3.874 16.1141 3.44531 13.6829C3.01661 11.2516 3.51203 9.02238 4.93156 6.99508L2.12243 5.23113L8.70644 3.56878Z" fill="#2D2942"/>
<path d="M13.366 10.7866V10.0308C13.366 9.71436 13.2488 9.44482 13.0145 9.22217C12.7918 8.98779 12.5223 8.87061 12.2059 8.87061C11.8895 8.87061 11.6141 8.98779 11.3797 9.22217C11.157 9.44482 11.0457 9.71436 11.0457 10.0308V10.7866H13.366ZM11.6785 13.9331C11.8309 14.0854 12.0066 14.1616 12.2059 14.1616C12.4051 14.1616 12.5809 14.0854 12.7332 13.9331C12.8855 13.7808 12.9617 13.605 12.9617 13.4058C12.9617 13.2065 12.8855 13.0308 12.7332 12.8784C12.5809 12.7261 12.4051 12.6499 12.2059 12.6499C12.0066 12.6499 11.8309 12.7261 11.6785 12.8784C11.5262 13.0308 11.45 13.2065 11.45 13.4058C11.45 13.605 11.5262 13.7808 11.6785 13.9331ZM14.4559 10.7866C14.6551 10.7866 14.8309 10.8628 14.9832 11.0151C15.1355 11.1558 15.2117 11.3257 15.2117 11.5249V15.2866C15.2117 15.4858 15.1355 15.6616 14.9832 15.814C14.8309 15.9546 14.6551 16.0249 14.4559 16.0249H9.95586C9.75664 16.0249 9.58086 15.9546 9.42851 15.814C9.27617 15.6616 9.2 15.4858 9.2 15.2866V11.5249C9.2 11.3257 9.27617 11.1558 9.42851 11.0151C9.58086 10.8628 9.75664 10.7866 9.95586 10.7866H10.325V10.0308C10.325 9.51514 10.5066 9.07568 10.8699 8.7124C11.2449 8.3374 11.6902 8.1499 12.2059 8.1499C12.7215 8.1499 13.1609 8.3374 13.5242 8.7124C13.8992 9.07568 14.0867 9.51514 14.0867 10.0308V10.7866H14.4559Z" fill="#2D2942"/>
</svg>
