<svg width="24" height="24" viewBox="0 0 24 24" fill="none" xmlns="http://www.w3.org/2000/svg">
<path d="M18.9844 3C19.5156 3 19.9844 3.20312 20.3906 3.60938C20.7969 4.01562 21 4.48438 21 5.01562V9H18.9844V5.01562H15V3H18.9844ZM18.9844 18.9844V15H21V18.9844C21 19.5156 20.7969 19.9844 20.3906 20.3906C19.9844 20.7969 19.5156 21 18.9844 21H15V18.9844H18.9844ZM5.01562 15V18.9844H9V21H5.01562C4.48438 21 4.01562 20.7969 3.60938 20.3906C3.20312 19.9844 3 19.5156 3 18.9844V15H5.01562ZM3 5.01562C3 4.48438 3.20312 4.01562 3.60938 3.60938C4.01562 3.20312 4.48438 3 5.01562 3H9V5.01562H5.01562V9H3V5.01562Z" fill="#2D2942"/>
</svg>
