<svg width="24" height="24" viewBox="0 0 24 24" fill="none" xmlns="http://www.w3.org/2000/svg">
<path d="M18.0156 20.0312V10H6.01562V20.0312H18.0156ZM18.0156 8.03125C18.5469 8.03125 19.0156 8.23438 19.4219 8.64062C19.8281 9.01562 20.0312 9.46875 20.0312 10V20.0312C20.0312 20.5625 19.8281 21.0312 19.4219 21.4375C19.0156 21.8125 18.5469 22 18.0156 22H6.01562C5.48438 22 5.01562 21.8125 4.60938 21.4375C4.20312 21.0312 4 20.5625 4 20.0312V10C4 9.46875 4.20312 9.01562 4.60938 8.64062C5.01562 8.23438 5.48438 8.03125 6.01562 8.03125H15.1094V6.01562C15.1094 5.17188 14.7969 4.45312 14.1719 3.85938C13.5781 3.23438 12.8594 2.92188 12.0156 2.92188C11.1719 2.92188 10.4375 3.23438 9.8125 3.85938C9.21875 4.45312 8.92188 5.17188 8.92188 6.01562H7C7 4.64062 7.48438 3.46875 8.45312 2.5C9.45312 1.5 10.6406 1 12.0156 1C13.3906 1 14.5625 1.5 15.5312 2.5C16.5312 3.46875 17.0312 4.64062 17.0312 6.01562V8.03125H18.0156ZM13.4219 16.4219C13.0156 16.8281 12.5469 17.0312 12.0156 17.0312C11.4844 17.0312 11.0156 16.8281 10.6094 16.4219C10.2031 16.0156 10 15.5469 10 15.0156C10 14.4844 10.2031 14.0156 10.6094 13.6094C11.0156 13.2031 11.4844 13 12.0156 13C12.5469 13 13.0156 13.2031 13.4219 13.6094C13.8281 14.0156 14.0312 14.4844 14.0312 15.0156C14.0312 15.5469 13.8281 16.0156 13.4219 16.4219Z" fill="white"/>
</svg>
