<svg width="40" height="40" viewBox="0 0 40 40" fill="none" xmlns="http://www.w3.org/2000/svg">
<path d="M34.792 17.1076C35.4902 17.2276 36 17.8327 36 18.5411V21.4589C36 22.1673 35.4902 22.7724 34.792 22.8924L32.2727 23.3258C31.9855 24.3884 31.568 25.3956 31.0313 26.3287L32.5047 28.4145C32.9135 28.9927 32.8458 29.7818 32.3455 30.2822L30.2822 32.3455C29.7811 32.8465 28.9927 32.9135 28.4145 32.5047L26.3287 31.032C25.3956 31.5687 24.3884 31.9855 23.3258 32.2735L22.8924 34.7927C22.7724 35.4902 22.1673 36 21.4589 36H18.5411C17.8327 36 17.2276 35.4902 17.1076 34.792L16.6742 32.2727C15.6116 31.9855 14.6044 31.568 13.6713 31.0313L11.5855 32.504C11.0073 32.9127 10.2182 32.8451 9.71782 32.3447L7.65455 30.2815C7.15418 29.7804 7.08655 28.992 7.49527 28.4138L8.96873 26.328C8.432 25.3949 8.01455 24.3876 7.72727 23.3251L5.208 22.8916C4.50982 22.7724 4 22.1673 4 21.4589V18.5411C4 17.8327 4.50982 17.2276 5.208 17.1076L7.72727 16.6742C8.01455 15.6116 8.432 14.6044 8.96873 13.6713L7.49527 11.5855C7.08655 11.0073 7.15418 10.2182 7.65455 9.71782L9.71782 7.65455C10.2189 7.15418 11.0073 7.08655 11.5855 7.49527L13.6713 8.96873C14.6044 8.432 15.6116 8.01527 16.6742 7.72727L17.1076 5.208C17.2276 4.50982 17.8327 4 18.5411 4H21.4589C22.1673 4 22.7724 4.50982 22.8924 5.208L23.3258 7.72727C24.3884 8.01455 25.3956 8.432 26.3287 8.96873L28.4145 7.49527C28.9927 7.08655 29.7818 7.15418 30.2822 7.65455L32.3455 9.71782C32.8458 10.2182 32.9135 11.0073 32.5047 11.5855L31.0313 13.6713C31.568 14.6044 31.9855 15.6116 32.2727 16.6742L34.792 17.1076ZM20 25.8182C23.2131 25.8182 25.8182 23.2131 25.8182 20C25.8182 16.7869 23.2131 14.1818 20 14.1818C16.7869 14.1818 14.1818 16.7869 14.1818 20C14.1818 23.2131 16.7869 25.8182 20 25.8182Z" fill="white"/>
</svg>
