<svg width="26" height="24" viewBox="0 0 26 24" fill="none" xmlns="http://www.w3.org/2000/svg">
<path d="M5.49798 5.0625L20.7682 19.6875L19.4467 20.9531L16.657 18.3281C15.4497 19.3281 14.0793 19.8281 12.5458 19.8281C10.8164 19.8281 9.33184 19.25 8.09195 18.0938C6.88469 16.9062 6.28106 15.4844 6.28106 13.8281C6.28106 12.7656 6.73786 11.3906 7.65147 9.70312L4.17651 6.375L5.49798 5.0625ZM18.8105 13.8281C18.8105 14.2969 18.7615 14.7344 18.6636 15.1406L9.70707 6.51562L12.5458 3C13.0026 3.5 13.5736 4.17188 14.2588 5.01562C14.9766 5.85938 15.9065 7.25 17.0485 9.1875C18.2232 11.0938 18.8105 12.6406 18.8105 13.8281Z" fill="white"/>
</svg>
