<svg width="80" height="32" viewBox="0 0 80 32" fill="none" xmlns="http://www.w3.org/2000/svg">
<path d="M39.4792 11.4935L43.1175 11.2583C43.2004 11.8531 43.3525 12.2958 43.6017 12.6139C44.0029 13.1119 44.5562 13.3609 45.2892 13.3609C45.8288 13.3609 46.2575 13.2364 46.5479 12.9736C46.8246 12.7661 46.9908 12.4341 46.9908 12.0883C46.9908 11.7563 46.8383 11.4381 46.5758 11.2306C46.2992 10.9816 45.6487 10.7327 44.6254 10.5113C42.9512 10.1378 41.7479 9.63983 41.0425 9.00354C40.3371 8.40871 39.9358 7.53721 39.9633 6.61042C39.9633 5.97408 40.1571 5.33779 40.5167 4.81212C40.9317 4.21729 41.4992 3.747 42.1767 3.48417C42.91 3.166 43.9338 3 45.22 3C46.7971 3 48.0004 3.2905 48.8304 3.88533C49.6604 4.46629 50.1583 5.40696 50.3104 6.69342L46.7142 6.90092C46.6171 6.34758 46.4233 5.94642 46.1054 5.68358C45.7871 5.42079 45.3721 5.29629 44.8329 5.29629C44.39 5.29629 44.0579 5.39313 43.8367 5.57296C43.6292 5.73892 43.4908 5.98792 43.5046 6.26458C43.5046 6.47208 43.6154 6.66575 43.7812 6.79025C43.9612 6.95625 44.39 7.10842 45.0679 7.24675C46.7417 7.60637 47.9312 7.96604 48.6646 8.33954C49.3975 8.71304 49.9233 9.1695 50.2412 9.709C50.5733 10.2623 50.7396 10.8986 50.7254 11.5488C50.7254 12.3235 50.5042 13.0981 50.0617 13.7482C49.605 14.426 48.9687 14.9517 48.2217 15.2699C47.4333 15.6157 46.4375 15.7955 45.2479 15.7955C43.145 15.7955 41.6925 15.3944 40.8767 14.5782C40.0604 13.7621 39.5762 12.7384 39.4792 11.4935ZM0.871458 15.588V3.22133H7.2485C8.42429 3.22133 9.33729 3.31817 9.95975 3.52567C10.5684 3.71933 11.1079 4.12046 11.4675 4.65996C11.8687 5.25479 12.0624 5.94642 12.0485 6.66575C12.09 7.88304 11.4675 9.04504 10.4024 9.65367C9.98742 9.88883 9.53092 10.0548 9.06062 10.1378C9.40642 10.2347 9.75225 10.4007 10.0566 10.5943C10.2917 10.788 10.4854 11.0093 10.6652 11.2445C10.8727 11.4796 11.0526 11.7425 11.2047 12.0191L13.0583 15.6019H8.71479L6.6675 11.7978C6.40467 11.3136 6.18333 10.9955 5.97587 10.8433C5.69921 10.6497 5.36721 10.5528 5.03521 10.5528H4.70321V15.5742H0.871458V15.588ZM4.70321 8.22887H6.32167C6.6675 8.20121 6.9995 8.14587 7.3315 8.06287C7.5805 8.02137 7.80179 7.88304 7.95396 7.67554C8.32746 7.17758 8.27212 6.47208 7.81562 6.04325C7.56667 5.83575 7.0825 5.72508 6.39083 5.72508H4.70321V8.22887ZM0 26.1841L3.63808 25.949C3.72108 26.5437 3.87325 26.9864 4.12225 27.3046C4.50954 27.8026 5.07671 28.0654 5.80988 28.0654C6.34933 28.0654 6.77817 27.9409 7.06867 27.6781C7.34533 27.4568 7.51133 27.1386 7.51133 26.7927C7.51133 26.4607 7.35917 26.1426 7.09633 25.9351C6.81967 25.6861 6.1695 25.4371 5.13204 25.2158C3.45825 24.8423 2.25479 24.3443 1.54929 23.708C0.843833 23.1132 0.442666 22.2417 0.470333 21.3149C0.470333 20.6786 0.664 20.0422 1.02362 19.5166C1.43862 18.9218 2.00579 18.4515 2.68358 18.1886C3.41675 17.8705 4.44037 17.7045 5.72687 17.7045C7.30383 17.7045 8.50729 17.995 9.33729 18.5898C10.1672 19.1846 10.6514 20.1114 10.8036 21.3979L7.207 21.6054C7.11017 21.0521 6.9165 20.6509 6.59833 20.3881C6.294 20.1252 5.86521 20.0007 5.32571 20.0146C4.88304 20.0146 4.55104 20.1114 4.32971 20.3051C4.10842 20.4711 3.98392 20.7201 3.99775 20.9967C3.99775 21.2042 4.10842 21.3979 4.27437 21.5224C4.45421 21.6884 4.88304 21.8405 5.56087 21.9789C7.23467 22.3385 8.42429 22.6982 9.15746 23.0717C9.89058 23.4452 10.4162 23.9017 10.7344 24.4412C11.0664 24.9945 11.2324 25.6308 11.2324 26.2671C11.2324 27.0417 10.9972 27.8026 10.5684 28.4527C10.1119 29.1305 9.47558 29.6562 8.72862 29.9743C7.94012 30.3202 6.94417 30.5 5.75454 30.5C3.65192 30.5 2.19946 30.0988 1.38329 29.2827C0.567167 28.4527 0.110667 27.4291 0 26.1841Z" fill="white" fill-opacity="0.8"/>
<path d="M18.3978 25.2158L21.7454 26.2256C21.5656 27.0694 21.1921 27.8717 20.6803 28.5772C20.2099 29.1997 19.5875 29.6838 18.882 30.002C18.1627 30.3201 17.2497 30.4861 16.1431 30.4861C14.8012 30.4861 13.6946 30.2925 12.8508 29.9052C11.9932 29.5178 11.26 28.8262 10.6375 27.8441C10.015 26.8619 9.71069 25.6031 9.71069 24.0676C9.71069 22.0203 10.2502 20.4434 11.343 19.3506C12.4358 18.2578 13.9713 17.7045 15.9632 17.7045C17.5264 17.7045 18.7437 18.0226 19.6428 18.6451C20.5281 19.2814 21.1921 20.2497 21.6347 21.55L18.2595 22.297C18.1765 22.0065 18.052 21.716 17.886 21.4671C17.6785 21.1766 17.4157 20.9552 17.0975 20.7892C16.7794 20.6232 16.4197 20.5541 16.0601 20.5541C15.1886 20.5541 14.5246 20.8999 14.0681 21.6053C13.7223 22.1172 13.5424 22.9333 13.5424 24.04C13.5424 25.4094 13.7499 26.3501 14.1649 26.8619C14.5799 27.3737 15.1609 27.6227 15.9217 27.6227C16.6549 27.6227 17.2082 27.4152 17.5817 27.0141C17.9552 26.5853 18.2318 25.9904 18.3978 25.2158ZM26.2135 17.912H30.0314V22.2417H34.2089V17.912H38.0545V30.2786H34.2089V25.2711H30.0314V30.2786H26.2135V17.912Z" fill="white" fill-opacity="0.8"/>
<path d="M37.5288 24.0953C37.5288 22.0757 38.0963 20.4988 39.2167 19.3783C40.3371 18.2578 41.9142 17.6907 43.9196 17.6907C45.9809 17.6907 47.558 18.244 48.6784 19.3506C49.7988 20.4573 50.3521 22.0065 50.3521 23.9985C50.3521 25.451 50.103 26.6268 49.6188 27.5536C49.1488 28.4665 48.4155 29.2135 47.5163 29.7115C46.5896 30.2233 45.4413 30.4862 44.0721 30.4862C42.6751 30.4862 41.5267 30.2648 40.6138 29.8222C39.673 29.3519 38.8984 28.6187 38.3867 27.7196C37.8196 26.7513 37.5288 25.5478 37.5288 24.0953ZM41.3467 24.1092C41.3467 25.3541 41.5821 26.2533 42.0384 26.8066C42.4951 27.3461 43.1313 27.6228 43.9338 27.6228C44.7496 27.6228 45.3863 27.3599 45.8426 26.8204C46.2992 26.281 46.5205 25.3265 46.5205 23.9432C46.5205 22.7812 46.2851 21.9235 45.8151 21.3979C45.3446 20.8584 44.7084 20.5956 43.9059 20.5956C43.2005 20.5679 42.5226 20.8723 42.0526 21.4117C41.5821 21.9512 41.3467 22.8504 41.3467 24.1092ZM54.2667 24.0953C54.2667 22.0757 54.8342 20.4988 55.9546 19.3783C57.0751 18.2578 58.6521 17.6907 60.6576 17.6907C62.7188 17.6907 64.3096 18.244 65.4163 19.3506C66.523 20.4573 67.0901 22.0065 67.0901 23.9985C67.0901 25.451 66.8409 26.6268 66.3571 27.5536C65.8867 28.4665 65.1534 29.2135 64.2542 29.7115C63.3276 30.2233 62.1792 30.4862 60.8101 30.4862C59.413 30.4862 58.2646 30.2648 57.3517 29.8222C56.4109 29.3519 55.6363 28.6187 55.1246 27.7196C54.5576 26.7513 54.2667 25.5478 54.2667 24.0953ZM58.0846 24.1092C58.0846 25.3541 58.3201 26.2533 58.7763 26.8066C59.233 27.3461 59.8692 27.6228 60.6717 27.6228C61.4876 27.6228 62.1242 27.3599 62.5805 26.8204C63.0371 26.281 63.2584 25.3265 63.2584 23.9432C63.2584 22.7812 63.0234 21.9235 62.553 21.3979C62.0826 20.8584 61.4463 20.5956 60.6438 20.5956C59.9384 20.5679 59.2467 20.8723 58.7905 21.4117C58.3201 21.9512 58.0846 22.8504 58.0846 24.1092Z" fill="white" fill-opacity="0.8"/>
<path d="M66.6888 17.912H70.5067V27.2354H76.4688V30.2787H66.675V17.912H66.6888Z" fill="white" fill-opacity="0.8"/>
<path d="M62.4808 17.1983C66.3246 14.3017 67.51 9.39137 65.1279 6.23092C62.7466 3.07046 57.6996 2.85658 53.8558 5.75321C50.0121 8.64983 48.8266 13.5601 51.2083 16.7205C53.59 19.881 58.6366 20.095 62.4808 17.1983Z" stroke="white" stroke-opacity="0.8" stroke-width="4" stroke-miterlimit="10"/>
<path d="M54.2808 10.5667L55.6641 9.59843L57.3654 12.0192C57.6558 12.4065 57.877 12.8215 58.0433 13.278C58.14 13.6238 58.1125 13.9973 57.9741 14.3293C57.7941 14.7443 57.5037 15.0901 57.1162 15.3391C56.66 15.6573 56.2725 15.8371 55.9408 15.8924C55.6225 15.9478 55.2904 15.8924 54.9862 15.7541C54.6541 15.5881 54.3637 15.3529 54.1425 15.0486L55.332 13.942C55.4287 14.0941 55.5533 14.2325 55.6916 14.3431C55.7883 14.4123 55.8991 14.4538 56.0237 14.4538C56.1204 14.4538 56.2175 14.4123 56.2866 14.357C56.425 14.274 56.5216 14.108 56.5079 13.942C56.4662 13.7068 56.3695 13.4716 56.2175 13.2918L54.2808 10.5667ZM58.4304 12.1022L59.6895 11.1062C59.8279 11.2722 60.0075 11.3967 60.2012 11.4658C60.4779 11.5488 60.7683 11.4935 61.0033 11.3137C61.1695 11.2031 61.3079 11.0509 61.3633 10.8572C61.4462 10.6082 61.3079 10.3316 61.0587 10.2486C61.0175 10.2347 60.9758 10.2209 60.9341 10.2209C60.7683 10.2071 60.4779 10.2762 60.0491 10.4561C59.3437 10.7466 58.7904 10.8572 58.3754 10.8157C57.9741 10.7742 57.6004 10.5667 57.3791 10.2209C57.2133 9.98572 57.1304 9.70905 57.1162 9.43243C57.1162 9.11426 57.1995 8.79609 57.3791 8.53326C57.642 8.15976 57.9604 7.84164 58.3475 7.59264C58.9287 7.19147 59.4404 6.9978 59.8829 6.9978C60.3258 6.9978 60.7408 7.2053 61.1279 7.63414L59.8829 8.61626C59.6341 8.29809 59.1637 8.22893 58.8454 8.47793L58.8041 8.51943C58.6658 8.60243 58.5687 8.72693 58.5137 8.87909C58.472 8.98976 58.4995 9.11426 58.5687 9.21109C58.6241 9.28026 58.707 9.33559 58.8041 9.33559C58.9145 9.34943 59.1083 9.29409 59.385 9.16959C60.0766 8.87909 60.6025 8.71309 60.962 8.65776C61.2662 8.60243 61.5845 8.63009 61.875 8.75459C62.1379 8.86526 62.3591 9.05893 62.5112 9.29409C62.705 9.57076 62.8158 9.90272 62.8295 10.2486C62.8433 10.6082 62.7466 10.9541 62.5529 11.2584C62.3037 11.6318 61.9858 11.95 61.612 12.199C60.8512 12.7247 60.2287 12.946 59.7308 12.863C59.1912 12.78 58.7487 12.5033 58.4304 12.1022Z" fill="white" fill-opacity="0.8"/>
</svg>
