<svg width="24" height="24" viewBox="0 0 24 24" fill="none" xmlns="http://www.w3.org/2000/svg">
<path d="M12.9062 6.09375C14.875 6.34375 16.5312 7.21875 17.875 8.71875C19.25 10.2188 19.9375 11.9844 19.9375 14.0156C19.9375 16.0469 19.25 17.8125 17.875 19.3125C16.5312 20.8125 14.875 21.6875 12.9062 21.9375V19.9219C14.3438 19.6719 15.5312 19 16.4688 17.9062C17.4375 16.7812 17.9219 15.4844 17.9219 14.0156C17.9219 12.5469 17.4375 11.2656 16.4688 10.1719C15.5312 9.04688 14.3438 8.35938 12.9062 8.10938V12L8.35938 7.54688L12.9062 3V6.09375ZM7 20.3438L8.45312 18.8906C9.17188 19.4219 10 19.7656 10.9375 19.9219V21.9375C9.4375 21.75 8.125 21.2188 7 20.3438ZM6.01562 15C6.17188 15.9062 6.5 16.7344 7 17.4844L5.59375 18.8906C4.71875 17.7344 4.1875 16.4375 4 15H6.01562ZM7.04688 10.5469C6.48438 11.3594 6.14062 12.1875 6.01562 13.0312H4C4.1875 11.625 4.73438 10.3281 5.64062 9.14062L7.04688 10.5469Z" fill="white"/>
</svg>
