<svg width="24" height="24" viewBox="0 0 24 24" fill="none" xmlns="http://www.w3.org/2000/svg">
<path d="M15.9844 16.0156V12.0312H12V9.03125L6.98438 14L12 19.0156V16.0156H15.9844ZM12.7031 4.29688C12.5156 4.10938 12.2812 4.01562 12 4.01562C11.7188 4.01562 11.4844 4.10938 11.2969 4.29688C11.1094 4.48438 11.0156 4.71875 11.0156 5C11.0156 5.28125 11.1094 5.53125 11.2969 5.75C11.4844 5.9375 11.7188 6.03125 12 6.03125C12.2812 6.03125 12.5156 5.9375 12.7031 5.75C12.8906 5.53125 12.9844 5.28125 12.9844 5C12.9844 4.71875 12.8906 4.48438 12.7031 4.29688ZM18.9844 4.01562C19.5156 4.01562 19.9844 4.21875 20.3906 4.625C20.7969 5.03125 21 5.5 21 6.03125V20C21 20.5312 20.7969 21 20.3906 21.4062C19.9844 21.8125 19.5156 22.0156 18.9844 22.0156H5.01562C4.48438 22.0156 4.01562 21.8125 3.60938 21.4062C3.20312 21 3 20.5312 3 20V6.03125C3 5.5 3.20312 5.03125 3.60938 4.625C4.01562 4.21875 4.48438 4.01562 5.01562 4.01562H9.1875C9.40625 3.42188 9.76562 2.9375 10.2656 2.5625C10.7656 2.1875 11.3438 2 12 2C12.6562 2 13.2344 2.1875 13.7344 2.5625C14.2344 2.9375 14.5938 3.42188 14.8125 4.01562H18.9844Z" fill="white"/>
</svg>
