<svg width="24" height="24" viewBox="0 0 24 24" fill="none" xmlns="http://www.w3.org/2000/svg">
<path d="M16.8906 17.4844C17.4219 16.7656 17.7656 15.9375 17.9219 15H19.9375C19.75 16.4375 19.2188 17.7344 18.3438 18.8906L16.8906 17.4844ZM13 19.9219C13.9375 19.7656 14.7656 19.4219 15.4844 18.8906L16.9375 20.3438C15.8125 21.2188 14.5 21.75 13 21.9375V19.9219ZM19.9375 13.0312H17.9219C17.7656 12.0938 17.4219 11.2656 16.8906 10.5469L18.3438 9.14062C19.2188 10.2969 19.75 11.5938 19.9375 13.0312ZM15.5781 7.54688L11.0312 12V8.10938C9.59375 8.35938 8.39062 9.04688 7.42188 10.1719C6.48438 11.2656 6.01562 12.5469 6.01562 14.0156C6.01562 15.4844 6.48438 16.7812 7.42188 17.9062C8.39062 19 9.59375 19.6719 11.0312 19.9219V21.9375C9.0625 21.6875 7.39062 20.8125 6.01562 19.3125C4.67188 17.8125 4 16.0469 4 14.0156C4 11.9844 4.67188 10.2188 6.01562 8.71875C7.39062 7.21875 9.0625 6.34375 11.0312 6.09375V3L15.5781 7.54688Z" fill="white"/>
</svg>
