<svg width="24" height="24" viewBox="0 0 24 24" fill="none" xmlns="http://www.w3.org/2000/svg">
<path d="M21.7031 4.64062C21.8906 4.82812 21.9844 5.0625 21.9844 5.34375C21.9844 5.625 21.8906 5.85938 21.7031 6.04688L12.75 15L9.98438 12.2344L18.9375 3.28125C19.125 3.09375 19.3594 3 19.6406 3C19.9219 3 20.1562 3.09375 20.3438 3.28125L21.7031 4.64062ZM5.85938 14.9062C6.45312 14.3125 7.15625 14.0156 7.96875 14.0156C8.78125 14.0156 9.48438 14.3125 10.0781 14.9062C10.6719 15.5 10.9688 16.2031 10.9688 17.0156C10.9688 18.1094 10.5781 19.0469 9.79688 19.8281C9.01562 20.6094 8.07812 21 6.98438 21C5.35938 21 4.03125 20.3281 3 18.9844C3.46875 18.9844 3.90625 18.8125 4.3125 18.4688C4.75 18.0938 4.96875 17.6094 4.96875 17.0156C4.96875 16.2031 5.26562 15.5 5.85938 14.9062Z" fill="#00D0C3"/>
</svg>
