<svg width="24" height="24" viewBox="0 0 24 24" fill="none" xmlns="http://www.w3.org/2000/svg">
<path d="M21.0156 5.01563H19V3C19.5312 3 20 3.20312 20.4062 3.60938C20.8125 4.01562 21.0156 4.48438 21.0156 5.01563ZM13 5.01562H11.0313V3H13V5.01562ZM5.03125 9H3.01563V6.98438H5.03125V9ZM17.0312 5.01563L15.0156 5.01562V3H17.0312V5.01563ZM23.0312 12.9844L1 12.9844L1 11.0156L23.0312 11.0156V12.9844ZM3.01563 5.01562C3.01563 4.48438 3.21875 4.01562 3.625 3.60938C4.03125 3.20312 4.5 3 5.03125 3V5.01562H3.01563ZM5.03125 21C4.5 21 4.03125 20.7969 3.625 20.3906C3.21875 19.9844 3.01562 19.5156 3.01562 18.9844L3.01563 15H5.03125V18.9844H19V15H21.0156V18.9844C21.0156 19.5156 20.8125 19.9844 20.4062 20.3906C20 20.7969 19.5312 21 19 21H5.03125ZM9.01563 5.01562H7V3H9.01563V5.01562ZM21.0156 9H19V6.98438H21.0156V9Z" fill="#2D2942"/>
</svg>
