<svg width="24" height="24" viewBox="0 0 24 24" fill="none" xmlns="http://www.w3.org/2000/svg">
<path d="M18.9844 21.0156V19H21C21 19.5312 20.7969 20 20.3906 20.4062C19.9844 20.8125 19.5156 21.0156 18.9844 21.0156ZM18.9844 13V11.0312H21V13H18.9844ZM15 5.03125V3.01562H17.0156V5.03125H15ZM18.9844 17.0312V15.0156H21V17.0312H18.9844ZM11.0156 23.0312V1H12.9844V23.0312H11.0156ZM18.9844 3.01562C19.5156 3.01562 19.9844 3.21875 20.3906 3.625C20.7969 4.03125 21 4.5 21 5.03125H18.9844V3.01562ZM3 5.03125C3 4.5 3.20312 4.03125 3.60938 3.625C4.01562 3.21875 4.48438 3.01562 5.01562 3.01562H9V5.03125H5.01562V19H9V21.0156H5.01562C4.48438 21.0156 4.01562 20.8125 3.60938 20.4062C3.20312 20 3 19.5312 3 19V5.03125ZM18.9844 9.01562V7H21V9.01562H18.9844ZM15 21.0156V19H17.0156V21.0156H15Z" fill="#00D0C3"/>
</svg>
