<svg width="32" height="32" viewBox="0 0 32 32" fill="none" xmlns="http://www.w3.org/2000/svg">
<path fill-rule="evenodd" clip-rule="evenodd" d="M15.75 3C8.15312 3 2 9.15312 2 16.75C2 22.8344 5.93592 27.9735 11.4015 29.7953C12.089 29.9156 12.3469 29.5031 12.3469 29.1422C12.3469 28.8156 12.3297 27.7328 12.3297 26.5812C8.875 27.2172 7.98125 25.7391 7.70625 24.9656C7.55154 24.5703 6.88125 23.35 6.29688 23.0235C5.81562 22.7656 5.12812 22.1297 6.27967 22.1125C7.3625 22.0953 8.13596 23.1094 8.39375 23.5219C9.63125 25.6016 11.6078 25.0172 12.3985 24.6562C12.5187 23.7625 12.8797 23.161 13.275 22.8172C10.2156 22.4735 7.01875 21.2875 7.01875 16.0281C7.01875 14.5328 7.55154 13.2953 8.42812 12.3328C8.29062 11.9891 7.80937 10.5797 8.56562 8.68908C8.56562 8.68908 9.71721 8.32812 12.3469 10.0985C13.4469 9.78908 14.6156 9.63438 15.7844 9.63438C16.9531 9.63438 18.1219 9.78908 19.2219 10.0985C21.8516 8.31096 23.0031 8.68908 23.0031 8.68908C23.7594 10.5797 23.2781 11.9891 23.1406 12.3328C24.0172 13.2953 24.55 14.5156 24.55 16.0281C24.55 21.3047 21.336 22.4735 18.2766 22.8172C18.775 23.2469 19.2047 24.0719 19.2047 25.361C19.2047 27.2 19.1875 28.6781 19.1875 29.1422C19.1875 29.5031 19.4453 29.9328 20.1328 29.7953C25.5641 27.9735 29.5 22.8172 29.5 16.75C29.5 9.15312 23.3469 3 15.75 3Z" fill="#2D2942"/>
</svg>
