<svg width="40" height="40" viewBox="0 0 40 40" fill="none" xmlns="http://www.w3.org/2000/svg">
<path d="M15.493 12.2629C16.7449 11.011 18.2473 10.385 20 10.385C21.7527 10.385 23.2551 11.011 24.507 12.2629C25.759 13.5149 26.385 15.0172 26.385 16.77C26.385 18.1221 25.5837 19.5243 23.9812 20.9765C22.3787 22.3787 21.5775 23.6557 21.5775 24.8075H18.4225C18.4225 23.6557 18.6729 22.6792 19.1737 21.8779C19.6745 21.0266 20.2254 20.4257 20.8263 20.0751C21.4272 19.6745 21.9781 19.1987 22.4789 18.6479C22.9797 18.097 23.23 17.471 23.23 16.77C23.23 15.9186 22.9045 15.1925 22.2535 14.5915C21.6025 13.9405 20.8513 13.615 20 13.615C19.1487 13.615 18.3975 13.9405 17.7465 14.5915C17.0955 15.1925 16.77 15.9186 16.77 16.77H13.615C13.615 15.0172 14.241 13.5149 15.493 12.2629ZM10.9108 29.0892C13.4648 31.5931 16.4945 32.8451 20 32.8451C23.5055 32.8451 26.5102 31.5931 29.0141 29.0892C31.5681 26.5352 32.8451 23.5055 32.8451 20C32.8451 16.4945 31.5681 13.4898 29.0141 10.9859C26.5102 8.43192 23.5055 7.15493 20 7.15493C16.4945 7.15493 13.4648 8.43192 10.9108 10.9859C8.40689 13.4898 7.15493 16.4945 7.15493 20C7.15493 23.5055 8.40689 26.5352 10.9108 29.0892ZM8.65728 8.73239C11.8122 5.57746 15.5931 4 20 4C24.4069 4 28.1628 5.57746 31.2676 8.73239C34.4225 11.8372 36 15.5931 36 20C36 24.4069 34.4225 28.1878 31.2676 31.3427C28.1628 34.4476 24.4069 36 20 36C15.5931 36 11.8122 34.4476 8.65728 31.3427C5.55243 28.1878 4 24.4069 4 20C4 15.5931 5.55243 11.8372 8.65728 8.73239ZM18.4225 29.615V26.385H21.5775V29.615H18.4225Z" fill="#2D2942"/>
</svg>
