<svg width="380" height="260" viewBox="0 0 380 260" fill="none" xmlns="http://www.w3.org/2000/svg">
<g clip-path="url(#clip0_32_715)">
<path d="M7.16707 1.86367C5.23438 2.91705 2.81851 5.02381 1.77163 6.48233L0 9.15629L0.161058 130.538C0.402644 251.677 0.402644 251.92 2.09375 254.107C2.97957 255.323 4.7512 257.106 5.95914 257.997L8.13342 259.698L187.874 259.942C311.727 260.104 368.5 259.942 370.513 259.293C375.103 257.997 379.049 253.054 379.694 247.787C379.935 245.437 380.096 190.986 379.935 126.811C379.694 13.0457 379.694 10.0476 378.164 7.53571C376.311 4.4566 373.493 2.26882 369.708 0.97235C367.614 0.243087 322.921 0 188.84 0H10.7103L7.16707 1.86367ZM364.635 129.809C364.715 196.01 364.474 243.898 364.071 243.898C363.668 243.898 361.897 241.467 360.045 238.388C358.192 235.39 352.958 227.125 348.287 219.994C343.697 212.864 331.698 193.984 321.552 178.021C311.486 162.058 301.983 147.554 300.534 145.853C297.313 141.963 293.769 141.072 289.662 143.016C287.488 143.989 285.233 146.825 279.918 155.009C270.496 169.513 264.94 178.264 260.35 185.719C258.256 189.203 256.243 192.039 256.001 192.039C255.679 192.039 249.962 183.207 243.117 172.349C236.352 161.572 226.286 145.447 220.649 136.534C215.012 127.621 204.543 110.848 197.376 99.2607C190.129 87.6736 183.203 77.2208 181.915 75.9243C180.143 74.3037 178.774 73.7365 176.278 73.7365C172.09 73.7365 169.916 75.9243 163.151 86.7822C160.494 90.9958 152.28 104.041 144.871 115.872C114.754 163.922 104.849 179.48 104.204 179.399C103.802 179.399 99.5337 173.727 94.7825 166.839C84.3942 151.849 82.8642 150.147 79.3209 149.418C73.845 148.445 72.0733 150.147 58.3029 169.999C51.2969 180.128 40.506 195.685 34.2248 204.599C28.024 213.512 21.3401 223.073 19.4075 225.828C17.4748 228.664 15.6226 230.69 15.22 230.528C14.4952 230.042 14.1731 18.7177 14.9784 16.692C15.4615 15.4766 28.5072 15.3955 189.968 15.5576L364.393 15.8007L364.635 129.809Z" fill="#2D2942"/>
<path d="M270.094 34.0323C265.584 36.3011 261.075 40.9197 259.142 45.2143C256.887 50.2381 256.968 58.7462 259.303 63.5269C261.236 67.7404 267.034 73.3314 270.98 75.033C275.489 76.8967 284.428 76.4915 288.938 74.2227C303.111 66.9301 305.607 48.1313 293.689 37.5975C291.676 35.8149 288.615 33.8702 286.844 33.384C281.77 31.8445 273.879 32.1686 270.094 34.0323Z" fill="#2D2942"/>
</g>
<defs>
<clipPath id="clip0_32_715">
<rect width="380" height="260" fill="white"/>
</clipPath>
</defs>
</svg>
