<svg width="25" height="24" viewBox="0 0 25 24" fill="none" xmlns="http://www.w3.org/2000/svg">
<path d="M18.1102 11.9844C18.1102 9.76562 17.3273 7.875 15.7614 6.3125C14.1955 4.75 12.3165 3.96875 10.1242 3.96875C7.90069 3.96875 6.00598 4.76562 4.4401 6.35937C2.87423 7.92187 2.09129 9.79687 2.09129 11.9844C2.09129 14.1719 2.87423 16.0625 4.4401 17.6562C6.00598 19.2187 7.90069 20 10.1242 20V17.9844C8.4644 17.9844 7.03946 17.4062 5.84939 16.25C4.69064 15.0625 4.11127 13.6406 4.11127 11.9844C4.11127 10.3281 4.69064 8.92187 5.84939 7.76562C7.03946 6.57812 8.4644 5.98437 10.1242 5.98437C11.7841 5.98437 13.1933 6.57812 14.3521 7.76562C15.5422 8.92187 16.1372 10.3281 16.1372 11.9844H12.0972L17.1237 17L22.1501 11.9844H18.1102Z" fill="#2D2942"/>
</svg>
