<svg width="26" height="24" viewBox="0 0 26 24" fill="none" xmlns="http://www.w3.org/2000/svg">
<path d="M5.55681 5.0625L20.827 19.6875L19.5056 20.9531L16.7158 18.3281C15.5086 19.3281 14.1382 19.8281 12.6046 19.8281C10.8753 19.8281 9.39068 19.25 8.15079 18.0938C6.94353 16.9062 6.3399 15.4844 6.3399 13.8281C6.3399 12.7656 6.7967 11.3906 7.71031 9.70312L4.23535 6.375L5.55681 5.0625ZM18.8693 13.8281C18.8693 14.2969 18.8204 14.7344 18.7225 15.1406L9.76591 6.51562L12.6046 3C13.0614 3.5 13.6324 4.17188 14.3176 5.01562C15.0354 5.85938 15.9654 7.25 17.1074 9.1875C18.282 11.0938 18.8693 12.6406 18.8693 13.8281Z" fill="#2D2942"/>
</svg>
