<svg width="25" height="24" viewBox="0 0 25 24" fill="none" xmlns="http://www.w3.org/2000/svg">
<path d="M6.13066 11.9844C6.13066 9.76562 6.91359 7.875 8.47947 6.3125C10.0453 4.75 11.9244 3.96875 14.1166 3.96875C16.3402 3.96875 18.2349 4.76563 19.8007 6.35938C21.3666 7.92188 22.1496 9.79688 22.1496 11.9844C22.1496 14.1719 21.3666 16.0625 19.8007 17.6562C18.2349 19.2188 16.3402 20 14.1166 20V17.9844C15.7764 17.9844 17.2014 17.4062 18.3915 16.25C19.5502 15.0625 20.1296 13.6406 20.1296 11.9844C20.1296 10.3281 19.5502 8.92188 18.3915 7.76563C17.2014 6.57813 15.7764 5.98438 14.1166 5.98438C12.4568 5.98438 11.0475 6.57812 9.88875 7.76562C8.69869 8.92188 8.10366 10.3281 8.10366 11.9844H12.1436L7.11716 17L2.0907 11.9844H6.13066Z" fill="#2D2942"/>
</svg>
