<svg width="24" height="24" viewBox="0 0 24 24" fill="none" xmlns="http://www.w3.org/2000/svg">
<path d="M18.9688 11V8.98438H14.9844V5H12.9688V8.98438H8.98438V11H12.9688V14.9844H14.9844V11H18.9688ZM20 2C20.5312 2 20.9844 2.20312 21.3594 2.60938C21.7656 2.98438 21.9688 3.4375 21.9688 3.96875V15.9688C21.9688 16.5 21.7656 16.9688 21.3594 17.375C20.9844 17.7812 20.5312 17.9844 20 17.9844H8C7.46875 17.9844 7 17.7812 6.59375 17.375C6.1875 16.9688 5.98438 16.5 5.98438 15.9688V3.96875C5.98438 3.4375 6.1875 2.98438 6.59375 2.60938C7 2.20312 7.46875 2 8 2H20ZM3.96875 5.98438V20H17.9844V21.9688H3.96875C3.4375 21.9688 2.96875 21.7812 2.5625 21.4062C2.1875 21 2 20.5312 2 20V5.98438H3.96875Z" fill="#2D2942"/>
</svg>
